<svg width="100%" height="100%" viewBox="0 0 831 179" fill="none" xmlns="http://www.w3.org/2000/svg">
<path d="M126.989 178.124V164.993V115.506C126.989 79.9023 100.44 51.6262 64.8193 51.6262C29.1809 51.6262 0.877319 79.9198 0.877319 115.506C0.877319 151.092 29.1809 177.615 64.8193 177.615C79.2255 177.615 91.3507 174.092 102.212 164.993V178.124H126.989V178.124ZM64.8193 152.88C43.5872 152.88 25.6364 136.717 25.6364 115.523C25.6364 94.312 43.5696 76.3787 64.8193 76.3787C86.0514 76.3787 102.212 94.2945 102.212 115.523C102.212 136.717 86.0514 152.88 64.8193 152.88Z" stroke="white" stroke-miterlimit="10"/>
<path d="M426.906 152.88H403.357H375.545C358.612 152.88 344.452 142.029 339.152 126.883H426.344C433.433 126.883 438.978 121.326 438.978 114.507C438.978 73.346 406.13 51.1354 375.545 51.1354C340.416 51.1354 312.112 79.4115 312.112 114.507C312.112 149.339 340.416 178.141 375.545 178.141H403.357H426.906V152.88V152.88ZM339.152 101.868C344.452 86.9669 358.612 76.1158 375.545 76.1158C390.706 76.1158 406.884 84.1972 412.184 101.868H339.152Z" stroke="white" stroke-miterlimit="10"/>
<path d="M549.332 177.878H537.049H458.455C453.647 177.878 449.103 175.091 447.085 170.796C444.804 166.256 445.313 161.207 448.348 157.42L511.536 76.1157H457.964H445.681V51.1178H457.964H536.558C541.366 51.1178 545.911 53.6421 547.929 58.2C550.21 62.4948 549.701 67.5435 546.665 71.33L483.478 152.88H537.049H549.332V177.878V177.878Z" stroke="white" stroke-miterlimit="10"/>
<path d="M685.165 178.124V164.993V115.506C685.165 79.9023 658.634 51.6262 622.996 51.6262C587.357 51.6262 559.054 79.9023 559.054 115.506C559.054 151.11 587.357 177.615 622.996 177.615C637.402 177.615 649.527 174.092 660.389 164.993V178.124H685.165V178.124ZM622.996 152.88C601.764 152.88 583.813 136.717 583.813 115.523C583.813 94.312 601.746 76.3787 622.996 76.3787C644.228 76.3787 660.389 94.2945 660.389 115.523C660.406 136.717 644.228 152.88 622.996 152.88Z" stroke="white" stroke-miterlimit="10"/>
<path d="M167.927 178.124V165.484V114.752C167.927 93.5407 185.123 76.3788 206.337 76.3788H216.427V51.4159L206.337 51.3633C171.454 51.3633 142.904 79.6394 142.904 114.735V165.484V178.124H167.927V178.124Z" stroke="white" stroke-miterlimit="10"/>
<path d="M310.375 76.3787H299.215H281.281V165.502V178.141H256.259V165.502V76.3787H238.063H229.745V51.4508L236.466 51.4859C236.992 51.4158 237.519 51.3807 238.063 51.3807H256.259V0.876465H281.281V51.3807H299.215H310.375V76.3787Z" stroke="white" stroke-miterlimit="10"/>
<path d="M728.261 51.1178V64.0901C738.947 55.9561 752.266 51.1178 766.672 51.1178C801.556 51.1178 830.105 79.3939 830.105 114.489V165.239V178.123H805.083V165.239V114.489C805.083 93.2777 787.904 76.1157 766.672 76.1157C745.44 76.1157 728.261 93.2952 728.261 114.489V165.239V178.123H703.239V165.239V114.489C703.239 111.544 703.239 105.864 703.239 105.864C703.239 105.864 703.239 103.322 703.239 101.99V64.1251V51.1178H728.261V51.1178Z" stroke="white" stroke-miterlimit="10"/>
</svg>
