<?xml version="1.0" encoding="utf-8"?>
<!-- Generator: Adobe Illustrator 22.0.1, SVG Export Plug-In . SVG Version: 6.00 Build 0)  -->
<svg version="1.1" id="Layer_1" xmlns="http://www.w3.org/2000/svg" xmlns:xlink="http://www.w3.org/1999/xlink" x="0px" y="0px"
	 viewBox="0 0 512 512" style="enable-background:new 0 0 512 512;" xml:space="preserve">
<style type="text/css">
	.st0{fill:#FFFFFF;}
</style>
<path class="st0" d="M317,173.6c-7.5-7.5-14.9-15-22.4-22.5c-5.9-5.9-11.5-6.7-16.1-2.2c-4.7,4.6-4,10.2,2.2,16.5
	c5.4,5.4,10.8,10.8,16.2,16.2c11.9,11.9,23.7,23.7,35.6,35.6c4.8,4.8,10.2,7.5,17,4.8c8.7-3.4,11.5-12.7,6.4-21.6
	c-5.2-9-11-17.8-16.2-26.9c-6.7-11.7-1.7-25.3,10.5-29.3c8.9-2.9,17.7,0.4,23.6,9.2c14.3,21.2,28.6,42.4,42.7,63.7
	c14.6,22,22.4,46.2,22.5,72.6c0.1,14.3,0.1,28.6,0,42.9c0,4.9,1.4,9,5,12.4c7.9,7.6,15.5,15.5,23.3,23.2c5.2,5.1,11.2,5.6,15.4,1.4
	c4.3-4.3,3.9-10.1-1.3-15.4c-6.3-6.4-12.6-12.8-19.1-19c-2.5-2.4-3.6-4.8-3.5-8.2c0.2-11.3,0.1-22.6,0.1-33.9
	c0.2-30.5-7.6-58.8-24.3-84.4c-14.8-22.7-29.7-45.3-45.2-67.5c-14.5-20.9-41.8-24.2-59.9-7.6C318,144.4,314.8,157.9,317,173.6z"/>
<path class="st0" d="M106.8,36.8C106.4,11.1,80.7-5,57.4,5.6c-1.5,0.7-3.9,0.8-5.4,0.2c-15-6.6-31.1-3.5-40.9,8
	C0.2,26.4-0.9,42,8.3,56C19,72.2,33,85.1,48.1,96.9c4.1,3.2,8.8,3.2,12.9,0c14.9-11.8,28.9-24.5,39.4-40.5
	C104.3,50.5,107,44.1,106.8,36.8z"/>
<path class="st0" d="M365.8,273c-2.6-3.3-4.2-6.4-6.7-8.3c-3.1-2.4-7.2-2.2-10.2,0.5c-3.8,3.4-7.5,7.1-10.6,11.1
	c-13.8,17.5-11.5,46.6,4.6,61.5c4,3.7,9.6,3.9,13.5,0.6c3.9-3.3,4.5-8.4,1.6-13c-1.5-2.4-3.5-4.4-5-6.8c-7-11.6-4.9-24.6,5.4-35.4
	C361.1,280.4,363,277,365.8,273z"/>
<path class="st0" d="M252.1,132.4c0,5.4,4.4,9.9,9.7,10c5.2,0,9.9-4.6,9.9-9.8c0-5.4-4.4-9.8-9.8-9.9
	C256.5,122.6,252.2,126.9,252.1,132.4z"/>
<path d="M89.8,512.7c-8.9-6.6-9.3-11.8-1.3-19.8c12.9-12.9,25.9-25.8,38.7-38.8c3.6-3.7,7.7-5.3,12.8-5.3c13.3,0,26.6,0.1,39.8-0.8
	c14.5-1,27.7-6.4,39.8-14.4c15.4-10.1,30.7-20.5,45.9-30.8c5.7-3.9,7.8-8.8,6.1-13.9c-2.5-7.4-10-10.1-17.4-6
	c-5.9,3.3-11.6,7.2-17.5,10.4c-2.8,1.5-6.1,2.7-9.3,2.9c-4.8,0.3-8.6-2.3-10.8-6.6c-2.3-4.3-2.3-8.6,0.4-12.7
	c1.3-1.9,2.8-3.7,4.5-5.3c20.5-20.6,41.1-41.1,61.7-61.7c6.9-6.9,7.9-13,2.9-18.2c-5-5.2-11.3-4.3-18.1,2.5
	c-13.9,13.9-27.7,27.7-41.7,41.6c-1.5,1.5-3.1,3-4.9,4.2c-3.7,2.3-9,1.7-11.9-1.6c-3.1-3.4-4-7.3-1.6-11.5c1.1-2,2.8-3.7,4.4-5.3
	c18.6-18.6,37.2-37.1,55.7-55.7c1.3-1.3,2.6-2.6,3.7-4c3.6-4.9,3.3-10.5-0.7-14.5c-4-4-10.1-4.2-14.9-0.3c-1.3,1-2.4,2.3-3.6,3.4
	c-18.6,18.6-37.1,37.2-55.7,55.7c-1.6,1.6-3.4,3.3-5.3,4.4c-3.8,2.2-9,1.2-11.8-2c-2.9-3.5-3.4-7.5-1.1-11.5
	c1.1-1.8,2.7-3.4,4.2-4.9c14.3-14.4,28.6-28.7,43-43.1c3.1-3.1,5-6.6,4-11.1c-1.7-7.5-9.9-11-16.3-6.8c-1.8,1.2-3.4,2.7-4.9,4.2
	c-13.6,13.6-27.2,27.3-40.9,40.9c-1.3,1.3-2.6,2.6-4,3.7c-4.3,3.2-9.6,3-13.2-0.6c-3.5-3.5-4.1-9-0.7-13.1
	c3.6-4.3,7.8-8.2,11.7-12.2c5.2-5.3,5.6-11.8,1.1-16.3c-4.5-4.6-11-4.5-16.4,0.8c-18.8,18.8-37.9,37.3-56.2,56.6
	c-16.1,16.9-23.7,37.7-24.2,61.1c-0.1,6.5,0.5,13-0.2,19.4c-0.4,3.7-1.7,8.1-4.2,10.6C48,400.4,34.1,414,20.3,427.7
	c-5.3,5.3-11,5.6-15.4,1.1c-4.3-4.4-3.8-10,1.5-15.4c9.6-9.7,18.8-19.8,29-28.8c8-7,11.4-14.6,10.6-25.4
	c-1.1-16.1,2.2-31.8,9.1-46.5c4.4-9.4,10.1-18.2,15.7-28.1c-10.4-9.6-17.2-22.1-14.2-38c2.9-15.6,12.4-25.6,27.6-31.1
	c-8.1-11.4-10.9-23.6-6.6-36.9c4.2-13.1,13.4-21.3,26.4-25.8c-10.2-18.5-9.6-35.8,5.3-50.9c10.4-10.5,28.8-16.2,49.6-4.1
	c3-8.2,7.4-15.3,14.5-20.7c13.3-10.1,34-10.5,46.8,0.4c8.7,7.4,16.7,15.7,24.7,23.9c4.5,4.6,4.3,10.3,0.3,14.3
	c-4,4-9.6,4.1-14.3-0.3c-7.3-6.8-14.1-14.1-21.3-21c-5.6-5.3-12.3-6.4-19.5-3.8c-7,2.5-11.1,7.8-12.3,15c-1.1,6.7,1.4,12.3,6.2,17.1
	c17.5,17.5,35,35,52.5,52.6c1.5,1.5,3,3.2,4.1,5c2.2,3.8,1.3,8.9-2,11.8c-3.5,3-7.5,3.6-11.5,1.2c-1.8-1.1-3.4-2.7-4.9-4.2
	c-23.5-23.5-47-47-70.4-70.6c-4.9-5-10.4-8.3-17.7-7.4c-7.7,1-13.3,5.2-15.9,12.6c-2.7,7.6-0.8,14.5,4.8,20.2
	c12,12.2,24.2,24.2,36.3,36.3c1.8,1.8,3.6,3.5,5.3,5.3c4.8,5.2,5.1,10.9,0.8,15.1c-4.2,4.1-10,3.8-15-1.1
	c-7.1-7-14.1-14.1-21.2-21.1c-8.6-8.5-20-9.1-27.9-1.5c-8,7.7-7.6,19.7,0.9,28.4c7.9,8.1,15.8,16.1,24.2,24.7
	c8.3-8.9,17-16.2,29.7-15.6c12.3,0.7,21.1,7,27.5,18.5c3.6-3.9,6.9-7.4,10.1-11c16.6-19.4,43.2-15.8,54.3,6
	c14-6.3,27.3-5.4,38.1,6.3c9.9,10.7,10.6,23.1,4.3,36.4c7.7,3.8,13.8,9.4,16.8,17.5c4.7,13.1,1.5,24.5-8.2,34.2
	c-11.4,11.4-22.8,22.8-34.2,34.2c-1.1,1.1-2.2,2.4-3.7,4.1c9.8,0.9,17.5,4.1,23.7,11.1c11.2,12.6,10.1,33-3,43.7
	c-6.1,5-12.9,9.2-19.8,14.2c12.2,4.8,24.3,7.5,36.8,8c11.8,0.5,23.6,0.4,35.4,0.4c4.8,0,8.6,1.6,12,5c16.5,16.7,33.2,33.1,49.6,49.8
	c2.2,2.2,4.3,5.6,4.3,8.4c-0.1,2.9-2.1,6.9-4.6,8.4c-2.4,1.5-6.5,0.9-9.7,0.2c-1.8-0.4-3.4-2.5-4.9-4c-14.7-14.7-29.5-29.3-44-44.1
	c-2.8-2.9-5.6-3.9-9.6-3.9c-16.8,0.3-33.7,0.8-50.1-3.3c-9.9-2.5-19.8-5.7-29.3-9.4c-4.6-1.8-7.7-1.5-11.7,1.3
	c-14.7,10.7-31,18.4-49.1,20.5c-13.5,1.5-27.2,1.3-40.8,1.5c-3.8,0.1-6.5,1.2-9.1,3.9c-11.3,11.5-22.7,22.9-34.2,34.2
	c-2.3,2.3-5.3,4-7.9,5.9C93.1,512.7,91.4,512.7,89.8,512.7z M111.8,243.5c-5.4-7-12.4-10.9-21.5-8.6c-7.8,1.9-12.6,7.2-14.1,15.1
	c-1.7,8.9,2.6,15.2,8.9,20.3C94,261.3,102.8,252.5,111.8,243.5z"/>
<path d="M512.6,95.9c-8.5,24.2-27.6,39.6-46.4,55.1c-3.9,3.2-8.5,3-12.4-0.1C438.7,139,424.6,126.1,414,110
	c-9.2-14-8.1-29.8,2.6-42.3c10-11.6,26-14.7,40.8-8.1c1.3,0.6,3.4,0.9,4.5,0.3c19.7-10.8,45.6,1.3,49.9,24.7
	c0.1,0.4,0.5,0.8,0.7,1.3C512.6,89.2,512.6,92.5,512.6,95.9z M460.4,130.7c6.9-6.9,13.7-13.4,20.2-20.2c3.2-3.3,6-7.1,8.6-11
	c4.9-7.4,4.1-14.5-1.6-19.8c-5.8-5.3-12.8-5.1-19.8,0.5c-5.9,4.7-9.6,4.7-15.5-0.1c-6.7-5.4-13.7-5.6-19.4-0.7
	c-6,5.1-6.9,12.3-2.1,19.7C438.5,111.4,449.1,120.9,460.4,130.7z"/>
<path d="M512.6,392c-2.2,3.8-4.7,7.2-9.8,7.2c-4.8,0-8.6-2.9-9.7-7.6c-1.1-4.4,1.3-9.2,5.5-11.1c4.2-1.9,9.2-0.6,12,3.2
	c0.8,1.1,1.4,2.2,2.1,3.3C512.6,388.7,512.6,390.4,512.6,392z"/>
<path d="M317,173.6c-2.2-15.7,0.9-29.2,12.6-39.9c18.1-16.6,45.3-13.3,59.9,7.6c15.5,22.2,30.4,44.8,45.2,67.5
	c16.7,25.6,24.5,53.8,24.3,84.4c-0.1,11.3,0.1,22.6-0.1,33.9c-0.1,3.5,1,5.9,3.5,8.2c6.5,6.2,12.8,12.6,19.1,19
	c5.2,5.3,5.6,11.1,1.3,15.4c-4.2,4.2-10.2,3.7-15.4-1.4c-7.8-7.7-15.4-15.6-23.3-23.2c-3.6-3.5-5.1-7.5-5-12.4
	c0.1-14.3,0.1-28.6,0-42.9c-0.1-26.5-7.9-50.7-22.5-72.6c-14.1-21.3-28.4-42.5-42.7-63.7c-6-8.8-14.7-12.1-23.6-9.2
	c-12.1,4-17.2,17.7-10.5,29.3c5.2,9.1,10.9,17.8,16.2,26.9c5.1,8.9,2.4,18.2-6.4,21.6c-6.8,2.7-12.2,0-17-4.8
	c-11.8-11.9-23.7-23.7-35.6-35.6c-5.4-5.4-10.8-10.8-16.2-16.2c-6.2-6.2-6.9-11.8-2.2-16.5c4.6-4.4,10.1-3.7,16.1,2.2
	C302.1,158.6,309.6,166.1,317,173.6z"/>
<path d="M106.8,36.8c0.2,7.3-2.5,13.7-6.4,19.5C89.8,72.4,75.9,85.1,61,96.9c-4.1,3.2-8.8,3.3-12.9,0C33,85.1,19,72.2,8.3,56
	C-0.9,42,0.2,26.4,11.1,13.7C20.9,2.2,37-0.8,52,5.8c1.5,0.7,3.8,0.5,5.4-0.2C80.7-5,106.4,11.1,106.8,36.8z M54.5,76.6
	c10.8-9.5,21.4-18.9,29.1-30.9c4.9-7.5,4.1-14.5-1.6-19.8c-5.7-5.2-12.9-5-19.8,0.5c-5.9,4.7-9.6,4.7-15.5-0.1
	c-6.7-5.4-13.6-5.6-19.4-0.7c-6,5.1-6.9,12.3-2.2,19.7C32.9,57.5,43.5,67,54.5,76.6z"/>
<path d="M365.8,273c-2.8,3.9-4.7,7.3-7.3,10.1c-10.2,10.7-12.4,23.8-5.4,35.4c1.4,2.4,3.4,4.5,5,6.8c3,4.6,2.3,9.7-1.6,13
	c-3.9,3.4-9.5,3.1-13.5-0.6c-16.1-14.8-18.4-43.9-4.6-61.5c3.1-4,6.8-7.7,10.6-11.1c3-2.7,7-2.9,10.2-0.5
	C361.6,266.6,363.2,269.7,365.8,273z"/>
<path d="M252.1,132.4c0-5.5,4.4-9.8,9.8-9.7c5.4,0,9.8,4.5,9.8,9.9c0,5.3-4.7,9.9-9.9,9.8C256.5,142.3,252.1,137.8,252.1,132.4z"/>
<path class="st0" d="M111.8,243.5c-9,9-17.8,17.8-26.7,26.8c-6.3-5-10.6-11.4-8.9-20.3c1.5-7.9,6.3-13.2,14.1-15.1
	C99.4,232.7,106.4,236.5,111.8,243.5z"/>
<path class="st0" d="M460.4,130.7c-11.3-9.8-22-19.3-29.7-31.5c-4.7-7.4-3.8-14.6,2.1-19.7c5.7-4.9,12.7-4.7,19.4,0.7
	c5.9,4.7,9.7,4.8,15.5,0.1c6.9-5.6,14-5.7,19.8-0.5c5.8,5.3,6.5,12.4,1.6,19.8c-2.6,3.9-5.4,7.6-8.6,11
	C474.2,117.3,467.3,123.9,460.4,130.7z"/>
<path class="st0" d="M54.5,76.6c-11-9.5-21.6-19-29.4-31.2c-4.7-7.4-3.8-14.6,2.2-19.7c5.8-5,12.7-4.7,19.4,0.7
	c5.9,4.7,9.7,4.7,15.5,0.1c6.9-5.5,14.1-5.7,19.8-0.5c5.8,5.3,6.5,12.3,1.6,19.8C75.9,57.7,65.3,67.1,54.5,76.6z"/>
</svg>
