<?xml version="1.0" encoding="utf-8"?>
<!-- Generator: Adobe Illustrator 22.0.1, SVG Export Plug-In . SVG Version: 6.00 Build 0)  -->
<svg version="1.1" id="Layer_1" xmlns="http://www.w3.org/2000/svg" xmlns:xlink="http://www.w3.org/1999/xlink" x="0px" y="0px"
	 viewBox="0 0 512 512" style="enable-background:new 0 0 512 512;" xml:space="preserve">
<style type="text/css">
	.st0{fill:#FFFFFF;}
</style>
<path class="st0" d="M454.9,372.6c-0.2-5.2-4.8-9.7-10-9.5c-5.2,0.1-9.7,4.8-9.6,10c0.2,5.3,4.7,9.6,10,9.4
	C450.7,382.4,455.1,377.8,454.9,372.6z"/>
<path class="st0" d="M133.8,124.6c-5.1,0.1-9.7,4.8-9.7,9.9c0.1,5.1,4.8,9.7,9.9,9.7c5.1-0.1,9.7-4.8,9.7-9.9
	C143.6,129.1,138.9,124.5,133.8,124.6z"/>
<path d="M508.4,501c-2.3,6.1-6.9,8-13.1,8c-159.9-0.1-319.7-0.1-479.6-0.1c-1.3,0-2.6,0-3.9-0.1c-5.4-0.7-9.2-5-9.1-10
	c0.1-4.8,3.8-9,9.1-9.5c3.6-0.4,7.2-0.2,10.9-0.2c10.9,0,21.7,0,33,0c0-74.3,0-148.5,0-223.1c-1.4-0.1-3-0.2-4.6-0.2
	c-12.3,0-24.7,0-37,0c-4.7,0-8.4-1.6-10.4-6c-2.1-4.6-0.5-8.4,2.8-11.6c30.9-31,61.9-62,92.9-92.9c5.1-5,10.6-5.3,14.9-1.1
	c4.5,4.4,4.1,10-1.5,15.6c-23.8,23.9-47.7,47.8-71.6,71.6c-1.3,1.2-2.9,2.1-4.4,3.1c0.3,0.6,0.6,1.1,1,1.7c8.1,0,16.3-0.6,24.4,0.2
	c9.7,1,16.3-2.6,23.1-9.4c53-53.6,106.5-106.8,159.8-160.1c8.9-8.9,12.6-8.9,21.3-0.2c55.2,55.2,110.4,110.3,165.5,165.6
	c2.9,3,5.8,4.1,9.9,4c10.6-0.3,21.3-0.1,31.5-0.1C400.7,173.6,328.1,101,255.1,28c-0.7,0.6-2.1,1.9-3.4,3.2
	c-26.2,26.2-52.4,52.4-78.6,78.5c-1.6,1.6-3.3,3.3-5.2,4.5c-3.9,2.5-8.5,1.8-11.7-1.5c-3.2-3.2-3.9-7.8-1.4-11.8
	c1.1-1.8,2.6-3.4,4.1-4.9c29.1-29.1,58.2-58.2,87.3-87.3c2.1-2.1,4.5-3.8,6.7-5.7c2,0,4,0,5.9,0c3.3,2.9,6.8,5.7,9.9,8.8
	C345.9,89.3,423.5,166.9,501,244.5c2.6,2.6,4.9,5.6,7.4,8.4c0,2,0,4,0,5.9c-2.9,5.4-7.4,7.1-13.5,7c-13.1-0.3-26.3-0.1-39.9-0.1
	c0,2.2,0,4,0,5.7c0,21.7,0,43.5,0,65.2c0,2.1-0.1,4.3-0.8,6.3c-1.3,4.2-4.6,6.5-8.9,6.6c-4.5,0.1-7.9-2.2-9.3-6.7
	c-0.6-2-0.7-4.2-0.7-6.3c0-21.7,0-43.5,0-65.2c0-1.8,0-3.6,0-5.8c-6.6,1.1-10.5-2.5-14.5-6.4C367.3,205.5,313.7,152,260.2,98.4
	c-1.4-1.4-2.5-3-4.1-5c-2,1.9-3.4,3.2-4.7,4.5c-54,54.1-108,107.9-161.8,161.9c-3.8,3.8-7.6,6.8-13.6,5.9c0,74.5,0,148.6,0,223.1
	c39.3,0,78.5,0,118.3,0c0-2,0-4,0-5.9c0-59.1,0-118.2,0-177.3c0-11.1,3-14.1,14.1-14.1c31.6,0,63.2,0,94.8,0
	c10.4,0,13.6,3.2,13.6,13.6c0,59.1,0,118.2,0,177.3c0,2,0,3.9,0,6.3c39.4,0,78.6,0,118.6,0c0-1.6,0-3.3,0-5.1c0-22.9,0-45.8,0-68.7
	c0-1.6-0.1-3.3,0.2-4.9c0.8-5.2,4.9-8.8,9.7-8.8c4.8,0,8.9,3.7,9.7,8.9c0.2,1.6,0.2,3.3,0.2,4.9c0,22.7,0,45.4,0,68.2
	c0,1.8,0,3.6,0,5.9c10.2,0,20,0,29.8,0c3.6,0,7.3,0.1,10.9,0c6.1-0.3,10.4,2.1,12.7,7.9C508.4,498.3,508.4,499.6,508.4,501z
	 M214.3,311.5c0,59.4,0,118.4,0,177.2c27.7,0,55.1,0,82.4,0c0-59.3,0-118.1,0-177.2C269.2,311.5,241.9,311.5,214.3,311.5z"/>
<path d="M413.5,350.9c0,15.5,0,31,0,46.4c0,9.3-3.5,12.7-12.9,12.7c-16.5,0-32.9,0-49.4,0c-9.3,0-12.7-3.5-12.7-12.9
	c0-31,0-61.9,0-92.9c0-9.3,3.5-12.7,12.9-12.7c16.5,0,32.9,0,49.4,0c9.3,0,12.7,3.5,12.7,12.9C413.5,319.9,413.5,335.4,413.5,350.9z
	 M358.4,389.9c12,0,23.5,0,35,0c0-26.4,0-52.5,0-78.4c-11.8,0-23.3,0-35,0C358.4,337.7,358.4,363.6,358.4,389.9z"/>
<path d="M97.4,350.8c0-15.5,0-31,0-46.4c0-9.4,3.4-12.8,12.8-12.8c16.5,0,32.9,0,49.4,0c9.4,0,12.8,3.4,12.8,12.8
	c0,31,0,61.9,0,92.9c0,9.4-3.4,12.8-12.8,12.8c-16.5,0-32.9,0-49.4,0c-9.4,0-12.8-3.4-12.8-12.8C97.4,381.7,97.4,366.3,97.4,350.8z
	 M117.3,389.9c12,0,23.6,0,35,0c0-26.4,0-52.5,0-78.4c-11.9,0-23.3,0-35,0C117.3,337.7,117.3,363.7,117.3,389.9z"/>
<path d="M255.5,256.1c-24.8,0-45.3-20.3-45.5-45.1c-0.2-24.7,21-45.9,45.6-45.6c24.9,0.3,45.3,20.9,45.2,45.5
	C300.8,235.6,280.4,256,255.5,256.1z M255.6,236.3c14.2-0.1,25.7-11.7,25.5-25.8c-0.1-13.9-11.6-25.3-25.5-25.5
	c-13.9-0.1-25.8,11.7-25.8,25.7C229.8,224.9,241.4,236.4,255.6,236.3z"/>
<path d="M454.9,372.6c0.2,5.2-4.3,9.8-9.6,9.9c-5.3,0.1-9.9-4.2-10-9.4c-0.1-5.2,4.3-9.8,9.6-10C450.1,363,454.8,367.4,454.9,372.6z
	"/>
<path d="M133.8,124.6c5.1-0.1,9.8,4.5,9.9,9.7c0.1,5.1-4.5,9.8-9.7,9.9c-5.1,0.1-9.8-4.5-9.9-9.7C124,129.4,128.7,124.7,133.8,124.6
	z"/>
<path class="st0" d="M246.5,400.2c0-5.1-4.6-9.8-9.7-9.8c-5.1,0-9.8,4.6-9.8,9.7s4.6,9.8,9.7,9.8C241.7,410,246.4,405.3,246.5,400.2
	z"/>
<path d="M246.5,400.2c0,5.1-4.7,9.8-9.8,9.7c-5.1,0-9.8-4.7-9.7-9.8c0-5.1,4.7-9.8,9.8-9.7C241.8,390.4,246.5,395.1,246.5,400.2z"/>
</svg>
