<svg width="100%" height="100%" viewBox="0 0 23 23" fill="none" xmlns="http://www.w3.org/2000/svg">
<g transform='translate(3 -4)'>
<path d="M16.13 22.69V14.69C16.1635 13.6256 15.9826 12.5654 15.598 11.5724C15.2134 10.5793 14.633 9.67381 13.8912 8.90969C13.1495 8.14557 12.2616 7.53846 11.2805 7.1245C10.2993 6.71053 9.24492 6.49816 8.18001 6.50003C7.10394 6.49339 6.03726 6.70044 5.04182 7.10918C4.04638 7.51791 3.14199 8.12019 2.38108 8.8811C1.62017 9.64201 1.01789 10.5464 0.609155 11.5418C0.200422 12.5373 -0.00662759 13.604 1.08933e-05 14.68C-0.00855088 15.7483 0.198541 16.8073 0.608886 17.7936C1.01923 18.7799 1.62439 19.6733 2.38813 20.4202C3.15187 21.1671 4.05849 21.7523 5.05369 22.1406C6.0489 22.5289 7.11223 22.7124 8.18001 22.68C9.94086 22.7467 11.6621 22.1467 13 21V22.68L16.13 22.69ZM8.18001 19.46C7.53746 19.476 6.8981 19.3648 6.29863 19.133C5.69916 18.9011 5.15141 18.5531 4.68681 18.1089C4.22222 17.6648 3.84994 17.1332 3.59136 16.5448C3.33278 15.9564 3.19298 15.3226 3.18001 14.68C3.19812 13.3596 3.73072 12.0983 4.6645 11.1645C5.59829 10.2307 6.85956 9.69814 8.18001 9.68003C8.82262 9.69301 9.45634 9.8328 10.0448 10.0914C10.6332 10.35 11.1648 10.7222 11.6089 11.1868C12.0531 11.6514 12.4011 12.1992 12.6329 12.7987C12.8648 13.3981 12.9759 14.0375 12.96 14.68C12.9722 15.3111 12.857 15.9382 12.6211 16.5236C12.3852 17.1091 12.0335 17.6409 11.5872 18.0872C11.1409 18.5336 10.6091 18.8852 10.0236 19.1211C9.43815 19.357 8.81109 19.4723 8.18001 19.46Z"/>
</g>
<!-- <path d="M126.989 178.124V164.993V115.506C126.989 79.9023 100.44 51.6262 64.8193 51.6262C29.1809 51.6262 0.877319 79.9198 0.877319 115.506C0.877319 151.092 29.1809 177.615 64.8193 177.615C79.2255 177.615 91.3507 174.092 102.212 164.993V178.124H126.989V178.124ZM64.8193 152.88C43.5872 152.88 25.6364 136.717 25.6364 115.523C25.6364 94.312 43.5696 76.3787 64.8193 76.3787C86.0514 76.3787 102.212 94.2945 102.212 115.523C102.212 136.717 86.0514 152.88 64.8193 152.88Z" stroke-miterlimit="10"/> -->
</svg>
