<svg id="Capa_1" data-name="Capa 1" xmlns="http://www.w3.org/2000/svg" viewBox="0 0 512 512"><title>icon1</title><path d="M256,1.23C115.42,1.23,1.23,115.42,1.23,256S115.42,510.77,256,510.77,510.77,396.58,510.77,256,396.58,1.23,256,1.23Zm0,487.44C127.69,488.67,23.33,384.31,23.33,256S127.69,23.33,256,23.33,488.67,127.69,488.67,256,384.31,488.67,256,488.67Z"/><path d="M388.6,200.75H311.25V123.4a11,11,0,0,0-11.05-11.05H211.8a11,11,0,0,0-11.05,11.05v77.35H123.4a11,11,0,0,0-11.05,11.05v88.4a11,11,0,0,0,11.05,11.05h77.35V388.6a11,11,0,0,0,11.05,11h88.4a11,11,0,0,0,11.05-11V311.25H388.6a11,11,0,0,0,11-11.05V211.8C399,205.66,394.13,200.75,388.6,200.75Zm-10.43,88.4h-78a11,11,0,0,0-11.05,11.05v77.35h-66.3V300.2a11,11,0,0,0-11-11.05H134.45v-66.3H211.8a11,11,0,0,0,11-11V134.45h66.91V211.8a11,11,0,0,0,11.06,11h77.35Z"/></svg>