<svg version="1" xmlns="http://www.w3.org/2000/svg" width="756" height="756" viewBox="0 0 567.000000 567.000000"><path d="M504.3 149.1c-52.4 3.4-88.8 29.5-103.3 73.9-10.9 33.4-11.5 83.8-1.4 118.8 11.2 38.7 34.8 61.4 74 71.3 28.2 7.1 67.8 5.7 90.7-3.3l2.7-1v-51l-2.7.5c-1.6.3-7.2 1.6-12.5 3.1-27.4 7.2-56.3 4.4-71.8-7-11.9-8.8-19.2-24.2-22-46.8-1.6-12.6-.7-48.6 1.4-57.6 6.3-27.1 18.1-40.6 40.6-46.7 9.3-2.6 40.6-2.5 54 .1 5.2 1 10.2 1.9 11 2 1.3.1 1.5-3.4 1.8-25.2l.2-25.2-2.2-1c-3.7-1.6-18.4-4-27.7-4.5-18.1-1.1-21.9-1.2-32.8-.4zM0 286v131h57l.2-84.6.3-84.6L83 313.4l25.5 65.6h48l25.5-68.1 25.5-68.1.5 53.3.5 53.3 24.9-95.9c13.7-52.8 25.1-96.6 25.4-97.3.3-.9-7-1.2-34.6-1.2h-35l-1.5 4.2c-4.2 12.4-53 147.5-53.7 148.6-.4.8-12.5-30.2-29.6-75.7L75.5 155H0v131z"/><path d="M273.1 158.7C253.2 235.6 207 415.3 207 416c0 .7 10.5.9 29.7.8l29.8-.3 7.1-29.5c4-16.2 7.5-30.7 7.8-32.3l.6-2.7 37.7.2 37.7.3 7.9 32.2 7.9 32.3h60.6l-1.5-5.9c-1.4-5.4-2-6.2-6.7-9.5-6.3-4.3-17.2-15.2-22.2-22.1-5.2-7.1-12.9-23.5-15.7-33.5-7.7-26.8-8.8-61.1-3.1-102l1.6-11.5-8.6-33.5c-4.8-18.4-9.4-35.9-10.2-38.8l-1.5-5.2h-91.8l-1 3.7zm59.4 90.8l12.1 50-24.5.3c-13.4.1-24.6 0-24.9-.3-.3-.3 2.9-14.8 7.1-32.2 4.2-17.5 9.8-40.6 12.3-51.3 2.6-10.7 5-18.8 5.2-18 .3.8 6 24 12.7 51.5z"/></svg>
