<?xml version="1.0" standalone="no"?>
<!DOCTYPE svg PUBLIC "-//W3C//DTD SVG 20010904//EN"
 "http://www.w3.org/TR/2001/REC-SVG-20010904/DTD/svg10.dtd">
<svg version="1.0" xmlns="http://www.w3.org/2000/svg"
 width="303.000000pt" height="303.000000pt" viewBox="0 0 303.000000 303.000000"
 preserveAspectRatio="xMidYMid meet">
<metadata>
Created by potrace 1.11, written by Peter Selinger 2001-2013
</metadata>
<g transform="translate(0.000000,303.000000) scale(0.100000,-0.100000)"
fill="#000000" stroke="none">
<path d="M860 2153 c0 -3 6 -14 14 -22 19 -22 30 -61 17 -61 -6 0 -8 -7 -4
-16 3 -9 13 -14 24 -11 11 3 31 -7 50 -24 18 -16 33 -29 34 -29 1 0 0 11 -2
25 -3 13 -20 40 -39 59 -19 19 -34 39 -34 45 0 5 -10 17 -22 25 -24 17 -38 20
-38 9z"/>
<path d="M577 1999 c-37 -34 -67 -65 -67 -68 0 -5 268 -7 277 -2 4 2 -127 125
-136 129 -4 1 -37 -25 -74 -59z m37 -14 c-15 -23 -54 -53 -54 -41 0 5 63 66
68 66 1 0 -5 -11 -14 -25z"/>
<path d="M875 2020 c-3 -5 -12 -7 -20 -3 -17 6 -70 -5 -62 -13 3 -3 18 -7 33
-9 16 -1 30 -8 32 -14 2 -6 10 -11 18 -11 9 0 13 4 10 9 -7 10 17 21 46 21 28
0 19 8 -21 20 -18 5 -33 5 -36 0z"/>
<path d="M550 1885 c0 -21 -4 -24 -32 -20 -59 7 -263 16 -258 12 6 -5 102 -16
144 -17 16 0 27 -2 24 -5 -5 -6 -27 -9 -143 -21 -33 -3 -62 -8 -65 -11 -4 -4
55 -2 273 12 51 4 57 2 57 -15 0 -13 -7 -20 -18 -20 -10 0 -27 -6 -37 -14 -19
-14 -19 -15 -1 -35 22 -24 36 -27 36 -7 0 18 31 26 111 26 86 0 127 -9 131
-27 2 -13 8 -11 28 6 24 21 25 21 6 36 -11 8 -28 15 -38 15 -12 0 -18 7 -18
21 0 20 3 21 73 14 39 -4 83 -8 97 -10 14 -1 77 -6 140 -10 63 -4 118 -9 123
-12 4 -2 7 0 7 5 0 5 -28 12 -62 16 -35 3 -79 9 -98 12 -19 3 -47 6 -62 8 -28
2 -48 12 -26 13 56 1 236 29 232 35 -3 5 -9 6 -12 4 -4 -2 -59 -7 -122 -11
-63 -4 -125 -8 -137 -10 -22 -4 -117 -7 -140 -6 -7 1 -13 10 -13 20 0 17 -9
19 -100 19 -99 1 -100 1 -100 -23z m92 -32 c5 -38 -8 -54 -37 -48 -11 2 -23 4
-27 4 -5 1 -8 19 -8 41 0 40 1 41 34 38 31 -2 35 -5 38 -35z m88 21 c0 -8 -8
-15 -17 -15 -17 -1 -17 -2 0 -6 20 -5 23 -39 3 -46 -34 -13 -51 -1 -54 40 -3
41 -3 41 32 41 24 0 36 -5 36 -14z"/>
<path d="M1198 1893 c6 -2 18 -2 25 0 6 3 1 5 -13 5 -14 0 -19 -2 -12 -5z"/>
<path d="M1210 1810 c0 -5 5 -10 11 -10 5 0 7 5 4 10 -3 6 -8 10 -11 10 -2 0
-4 -4 -4 -10z"/>
<path d="M883 1763 l-23 -4 0 -235 0 -235 58 3 57 3 5 95 5 95 38 -1 c20 -1
44 -2 52 -3 12 -1 15 -19 15 -96 l0 -96 58 3 57 3 0 233 1 232 -23 1 c-97 6
-93 9 -93 -86 0 -74 -2 -85 -17 -86 -10 0 -33 -1 -51 -2 -19 -1 -36 2 -39 6
-3 5 -5 44 -5 88 0 67 -2 79 -16 79 -9 0 -26 2 -37 4 -11 2 -30 2 -42 -1z"/>
<path d="M1969 1759 c-9 -5 -12 -64 -11 -216 0 -114 1 -218 1 -230 1 -21 6
-23 56 -23 61 0 57 -8 58 98 0 51 1 52 31 53 120 3 170 50 171 161 0 118 -55
162 -202 164 -51 0 -98 -3 -104 -7z m179 -116 c29 -40 0 -103 -47 -103 -27 0
-28 1 -28 66 l0 66 31 -6 c17 -4 37 -14 44 -23z"/>
<path d="M2676 1760 c-18 -6 -19 -19 -18 -226 1 -120 1 -225 1 -232 1 -9 17
-12 59 -10 l57 3 0 233 c0 226 0 232 -20 233 -11 1 -29 3 -40 4 -11 1 -28 -1
-39 -5z"/>
<path d="M2873 1763 l-23 -4 0 -235 0 -235 58 3 57 3 3 233 c2 216 1 232 -15
233 -10 0 -27 2 -38 3 -11 2 -30 1 -42 -1z"/>
<path d="M585 1743 c-29 -7 -44 -22 -43 -41 1 -17 -10 -165 -17 -237 -3 -22
-7 -71 -10 -110 -2 -38 -7 -100 -10 -137 -6 -60 -4 -68 14 -78 20 -10 21 -8
22 37 0 26 2 62 3 78 2 17 7 91 11 165 4 74 9 149 11 165 1 17 3 51 3 78 1 26
6 47 12 47 7 0 9 -91 4 -305 l-6 -305 74 0 c41 0 89 5 106 11 l33 12 -7 111
c-3 61 -8 131 -10 156 -3 25 -7 90 -10 145 -8 132 -14 197 -20 203 -6 6 -136
10 -160 5z m120 -107 c3 -22 -1 -26 -21 -26 -18 0 -24 5 -24 23 0 28 20 51 33
38 5 -5 11 -21 12 -35z m-1 -204 c10 -17 14 -59 6 -71 -10 -17 -54 -10 -58 10
-7 40 34 89 52 61z"/>
<path d="M1375 1632 c-130 -29 -153 -266 -32 -329 45 -23 137 -21 178 3 102
60 101 250 -1 309 -33 19 -102 27 -145 17z m94 -109 c17 -32 19 -79 5 -111
-10 -26 -19 -32 -43 -32 -21 0 -34 7 -42 22 -14 26 -14 90 1 117 14 27 65 29
79 4z"/>
<path d="M1703 1623 c-55 -26 -78 -81 -58 -142 5 -17 50 -44 118 -70 15 -6 25
-16 22 -21 -8 -13 -76 -13 -108 -1 -28 11 -34 4 -43 -55 -5 -30 -2 -33 27 -39
131 -29 239 16 239 100 0 18 -4 45 -9 58 -9 23 -59 54 -97 60 -26 4 -45 17
-39 27 5 9 59 7 92 -4 25 -8 29 -3 38 45 8 44 -2 49 -90 54 -40 3 -71 -1 -92
-12z"/>
<path d="M2358 1627 c-41 -10 -44 -17 -28 -64 11 -29 12 -30 53 -21 43 10 97
-2 97 -20 0 -5 -12 -9 -27 -9 -59 1 -102 -14 -128 -45 -23 -27 -26 -39 -22
-76 10 -91 87 -124 227 -97 l55 11 3 111 c3 126 -9 170 -53 199 -30 20 -120
25 -177 11z m123 -194 c8 -63 7 -64 -29 -61 -42 4 -62 29 -43 52 13 16 70 23
72 9z"/>
<path d="M858 1214 c-16 -8 -28 -19 -28 -24 0 -5 14 -1 32 10 17 10 35 17 39
14 4 -2 10 0 14 6 9 15 -26 11 -57 -6z"/>
<path d="M958 1212 c-15 -2 -46 -21 -70 -43 l-43 -40 56 31 c32 17 67 33 79
35 46 9 27 23 -22 17z"/>
<path d="M159 1187 c-27 -23 -51 -63 -64 -107 -5 -20 -2 -19 15 9 52 83 120
112 214 91 45 -10 37 2 -13 19 -56 18 -122 13 -152 -12z"/>
<path d="M1215 1191 c-20 -8 -22 -25 -16 -137 2 -22 31 -10 31 13 0 13 6 23
13 23 38 0 67 65 41 90 -15 14 -48 19 -69 11z m40 -46 c0 -10 -6 -20 -12 -22
-8 -3 -13 5 -13 22 0 17 5 25 13 23 6 -3 12 -13 12 -23z"/>
<path d="M1406 1191 c-4 -5 -4 -16 0 -24 4 -11 -4 -15 -37 -15 -50 -1 -55 -7
-53 -64 1 -54 27 -61 32 -9 4 36 27 62 48 54 7 -3 12 -22 12 -44 0 -43 5 -55
21 -45 13 8 12 99 -2 108 -8 5 -7 10 1 21 7 7 9 17 5 20 -9 10 -21 9 -27 -2z"/>
<path d="M1937 1194 c-11 -12 -8 -142 4 -149 14 -9 17 -5 22 30 3 22 9 30 23
30 14 0 20 -8 22 -33 6 -61 27 -29 30 45 2 56 0 72 -13 76 -11 5 -15 -1 -15
-22 0 -23 -5 -30 -26 -34 -21 -4 -25 -1 -21 14 5 20 -15 54 -26 43z"/>
<path d="M2553 1174 c-51 -51 -6 -145 61 -128 26 6 32 32 6 26 -23 -5 -48 9
-54 31 -7 30 20 70 43 62 12 -3 21 0 25 10 3 8 0 15 -7 16 -7 0 -20 2 -31 4
-10 2 -29 -7 -43 -21z"/>
<path d="M938 1125 c-79 -57 -127 -74 -203 -70 -25 1 -44 0 -42 -2 8 -7 52
-14 111 -18 69 -4 93 6 177 71 30 24 63 44 72 44 24 0 30 -18 10 -34 -10 -8
-54 -45 -98 -81 -44 -36 -90 -68 -103 -71 -12 -4 -41 1 -64 10 -22 10 -69 18
-104 18 -56 1 -63 4 -68 24 -9 33 -86 97 -142 116 -27 9 -71 20 -99 22 l-50 6
70 -23 c92 -30 150 -70 182 -124 19 -33 31 -43 51 -44 15 -1 36 -3 47 -4 11
-2 38 -6 59 -9 49 -7 76 -30 58 -48 -19 -19 -193 -16 -292 5 -8 2 -40 11 -70
20 -101 30 -120 27 -183 -28 -31 -27 -54 -51 -53 -53 2 -1 36 13 76 32 53 26
78 33 94 27 29 -12 169 -39 231 -46 151 -17 237 -2 243 43 2 13 10 22 20 22
21 0 83 41 134 88 21 19 54 46 73 59 40 27 44 50 15 81 -34 36 -69 28 -152
-33z"/>
<path d="M1699 1164 c-33 -33 -2 -132 37 -117 19 7 18 23 -1 23 -10 0 -15 10
-15 30 0 20 5 30 15 30 8 0 15 5 15 10 0 6 -6 10 -14 10 -8 0 -16 7 -18 15 -3
14 -5 14 -19 -1z"/>
<path d="M1523 1130 c-8 -42 -19 -46 -27 -10 -4 21 -11 30 -25 30 -19 0 -19
-1 2 -54 24 -60 42 -66 62 -20 25 59 26 71 10 78 -11 4 -17 -3 -22 -24z"/>
<path d="M1597 1152 c-22 -5 -16 -28 6 -24 8 1 18 -1 21 -6 2 -4 -5 -9 -16 -9
-22 -2 -38 -19 -38 -40 0 -17 34 -34 62 -30 20 4 23 10 23 52 0 50 -16 67 -58
57z m33 -72 c0 -5 -7 -10 -15 -10 -8 0 -15 5 -15 10 0 6 7 10 15 10 8 0 15 -4
15 -10z"/>
<path d="M1800 1153 c-37 -13 -50 -55 -27 -87 17 -24 77 -32 77 -11 0 9 -10
15 -24 15 -14 0 -28 5 -31 10 -4 6 8 10 30 10 31 0 36 3 33 21 -4 25 -37 49
-58 42z m25 -33 c3 -5 -3 -10 -15 -10 -12 0 -18 5 -15 10 3 6 10 10 15 10 5 0
12 -4 15 -10z"/>
<path d="M2093 1149 c-13 -5 -23 -14 -24 -21 0 -7 -2 -21 -4 -30 -5 -28 22
-57 51 -53 31 3 43 14 49 46 8 42 -32 73 -72 58z m35 -36 c11 -22 5 -43 -13
-43 -7 0 -15 6 -18 13 -5 16 3 47 14 47 4 0 12 -8 17 -17z"/>
<path d="M2218 1152 c-27 -3 -28 -6 -28 -58 0 -65 22 -72 30 -10 7 51 24 50
28 -2 4 -53 25 -52 32 2 7 51 24 50 28 -1 5 -67 36 -52 34 16 -2 41 -26 65
-51 51 -9 -4 -23 -5 -31 -1 -8 4 -27 5 -42 3z"/>
<path d="M2400 1152 c-62 -21 -39 -119 25 -107 11 2 24 4 28 4 20 2 -7 21 -29
21 -13 0 -24 5 -24 10 0 6 14 10 30 10 22 0 30 5 30 18 0 33 -30 54 -60 44z
m25 -32 c3 -5 -1 -10 -9 -10 -9 0 -16 5 -16 10 0 6 4 10 9 10 6 0 13 -4 16
-10z"/>
<path d="M2677 1152 c-22 -5 -16 -28 6 -24 8 1 18 -2 22 -8 4 -6 3 -9 -2 -8
-4 1 -18 -1 -30 -6 -45 -15 -16 -70 33 -61 10 2 22 4 27 4 4 1 7 21 7 44 0 36
-4 46 -22 53 -13 6 -31 8 -41 6z m33 -72 c0 -5 -7 -10 -15 -10 -8 0 -15 5 -15
10 0 6 7 10 15 10 8 0 15 -4 15 -10z"/>
<path d="M2873 1150 c-39 -16 -42 -79 -4 -99 24 -13 55 -7 59 11 2 11 -3 14
-21 11 -14 -3 -28 0 -31 6 -5 7 5 11 29 11 31 0 36 3 33 21 -4 30 -37 49 -65
39z m32 -30 c3 -5 -3 -10 -15 -10 -12 0 -18 5 -15 10 3 6 10 10 15 10 5 0 12
-4 15 -10z"/>
<path d="M2764 1100 c1 -28 5 -50 9 -50 4 0 12 0 17 0 6 0 10 16 10 35 0 24 5
35 15 35 8 0 15 7 15 15 0 10 -10 15 -34 15 l-34 0 2 -50z"/>
</g>
</svg>
